<svg width="2359" height="1497" viewBox="0 0 2359 1497" fill="none" xmlns="http://www.w3.org/2000/svg">
<path fill-rule="evenodd" clip-rule="evenodd" d="M1598.98 131.627C1710.36 290.143 1585.18 568.15 1320.96 753.5C1056.77 938.85 751.938 960.78 641.384 802.28C530.026 642.95 654.393 364.94 918.59 179.602C1183.6 -5.76199 1487.62 -27.694 1598.98 131.627Z" fill="white"/>
<path fill-rule="evenodd" clip-rule="evenodd" d="M195.107 1111.18V1269.67H57.7321V1111.18H0.820068V1489.99H57.7321V1318.46H195.107V1489.99H251.202V1111.18H195.107ZM425.152 1266.43C472.297 1266.43 485.306 1313.57 482.868 1341.21V1342.04H362.56C363.377 1314.42 378.007 1266.43 425.152 1266.43ZM307.296 1357.48C307.296 1436.33 352.003 1495.68 449.548 1495.68C481.246 1495.68 505.642 1489.17 518.638 1484.28V1442.03C504.825 1446.89 482.881 1453.4 456.863 1453.4C388.577 1453.4 365.815 1409.5 363.377 1377.81H531.647C533.268 1368.88 535.719 1349.34 535.719 1338.77C535.719 1272.12 491 1224.96 425.165 1224.96C364.181 1224.96 307.296 1269.67 307.296 1357.48ZM1951.8 1266.43C1998.94 1266.43 2012.74 1313.57 2010.32 1341.21V1342.04H1890.02C1890.83 1314.42 1905.44 1266.43 1951.8 1266.43ZM1834.72 1358.28C1834.72 1436.33 1878.62 1495.68 1976.17 1495.68C2008.7 1495.68 2033.09 1489.17 2046.09 1484.28V1442.03C2031.44 1446.89 2010.32 1453.4 1983.5 1453.4C1916.01 1453.4 1893.26 1409.5 1890.02 1377.81H2059.08C2060.73 1368.88 2062.35 1349.34 2062.35 1338.77C2062.35 1272.12 2017.64 1224.96 1952.61 1224.96C1890.83 1224.96 1834.72 1269.67 1834.72 1358.28ZM629.193 1416.01C629.193 1383.48 658.465 1359.9 734.87 1361.55V1451.78C725.117 1453.4 709.67 1455.02 692.602 1455.02C629.193 1455.02 629.193 1424.96 629.193 1416.01ZM598.311 1248.54V1293.25C614.563 1282.69 647.895 1267.23 684.483 1267.23C735.687 1267.23 734.883 1300.57 734.883 1316.03V1325.78C633.278 1324.97 574.732 1358.28 574.732 1416.83C574.732 1459.11 605.626 1495.68 690.98 1495.68C729.189 1495.68 777.152 1488.37 789.343 1484.28V1308.71C789.343 1272.94 777.152 1224.96 691.798 1224.96C649.516 1224.96 616.184 1238.79 598.311 1248.54ZM915.33 1111.18H862.493V1489.99H917.77V1111.18H915.33ZM2118.43 1185.15V1403C2118.43 1464.79 2141.18 1494.05 2204.62 1494.05C2221.69 1494.05 2244.43 1490.81 2250.14 1489.18V1445.28C2238.77 1447.72 2222.5 1450.17 2214.37 1450.17H2213.57C2179.42 1450.17 2172.91 1429.83 2172.91 1405.46V1275.39H2245.25V1231.51H2172.91V1151.81L2118.43 1185.15ZM990.95 1186.77V1404.65C990.95 1467.24 1013.69 1496.5 1077.12 1496.5C1094.18 1496.5 1116.95 1492.43 1122.64 1490.81C1122.64 1485.92 1121.84 1458.28 1122.64 1447.72C1110.45 1450.17 1095 1452.61 1086.87 1452.61H1086.07C1051.93 1452.61 1045.42 1431.46 1045.42 1407.9V1277.83H1117.76V1233.95H1045.42V1153.48L990.95 1186.77ZM1724.17 1111.18V1403.8L1598.16 1111.18H1529.09V1489.99H1584.36V1199.79L1709.55 1489.99H1779.44V1111.18H1724.17ZM1170.6 1111.18V1489.99H1225.06V1335.54C1225.06 1294.08 1255.13 1273.76 1281.14 1273.76C1311.21 1273.76 1338.04 1293.26 1338.04 1335.54V1489.99H1392.5V1329.03C1392.5 1271.33 1355.93 1224.98 1296.59 1224.98C1259.17 1224.98 1234 1246.94 1225.87 1254.26V1111.19L1170.6 1111.18Z" fill="#9E948E"/>
<path fill-rule="evenodd" clip-rule="evenodd" d="M1279.52 782.76C1138.89 874.61 991.75 923.39 869.003 923.39C675.533 923.39 586.924 817.71 586.924 686.84C586.924 551.899 677.155 385.25 830.794 245.423V782.75H977.92V572.209H1146.19V782.75L1279.52 782.76ZM1559.16 190.159C1559.16 159.265 1534.77 140.563 1503.08 140.563C1474.64 140.563 1453.49 159.252 1446.97 166.58L1453.49 141.38H1399.83L1356.74 332.411H1410.4L1423.42 277.951C1429.93 249.496 1442.11 186.087 1480.32 186.087C1494.15 186.087 1502.28 194.219 1502.28 207.214C1502.28 219.406 1499.01 231.61 1496.58 242.985L1477.08 332.411H1530.73L1550.24 245.423C1554.27 227.551 1559.16 208.848 1559.16 190.159ZM1657.53 238.121C1657.53 395.016 1535.58 595.8 1332.37 746.19C1319.55 755.67 1306.54 764.88 1293.34 773.82V237.304H1146.21V447.842H977.94V237.304H839.731C863.073 216.522 887.494 196.984 912.89 178.772C1067.35 64.1581 1238.86 0.736084 1377.07 0.736084C1587.61 0.749084 1657.53 125.129 1657.53 238.121Z" fill="#468588"/>
<path fill-rule="evenodd" clip-rule="evenodd" d="M2285.08 1173.77C2285.08 1154.27 2298.08 1140.44 2315.15 1140.44C2332.21 1140.44 2346.03 1154.27 2346.03 1173.77C2346.03 1194.08 2332.23 1207.9 2315.15 1207.9C2298.06 1207.9 2285.08 1194.08 2285.08 1173.77ZM2272.06 1173.77C2272.06 1198.17 2291.57 1216.86 2315.15 1216.86C2338.72 1216.86 2358.23 1198.17 2358.23 1173.77C2358.23 1150.19 2338.72 1131.49 2315.15 1131.49C2291.57 1131.49 2272.06 1150.18 2272.06 1173.77ZM2298.08 1198.17H2308.63V1177.83H2313.52L2324.9 1198.17H2335.46L2322.46 1177.02C2329.78 1176.21 2335.46 1172.97 2335.46 1164.02C2335.46 1153.46 2328.14 1150.19 2315.95 1150.19H2298.06V1198.17H2298.08ZM2308.65 1169.69V1158.31H2315.96C2320.01 1158.31 2324.9 1158.31 2324.9 1163.2C2324.9 1168.88 2321.66 1169.69 2316.77 1169.69H2308.65Z" fill="#9E948E"/>
</svg>
