<svg width="2280" height="650" viewBox="0 0 2280 650" fill="none" xmlns="http://www.w3.org/2000/svg">
<g clip-path="url(#clip0_39_238)">
<path fill-rule="evenodd" clip-rule="evenodd" d="M1759.29 17.7464H1507.24C1547.29 6.51455 1589.49 0.509521 1633.19 0.509521C1676.88 0.509521 1719.19 6.51455 1759.29 17.7464Z" fill="#9A9FA2"/>
<path fill-rule="evenodd" clip-rule="evenodd" d="M1507.24 17.7463H1759.29C1776.44 22.5581 1793.16 28.3296 1809.45 34.996H1457.19C1473.53 28.2902 1490.24 22.5308 1507.24 17.7463Z" fill="#9FA3A6"/>
<path fill-rule="evenodd" clip-rule="evenodd" d="M1457.19 34.9961H1809.45C1822.15 40.1865 1834.62 45.9378 1846.81 52.2329H1419.9C1432.07 45.938 1444.51 40.1867 1457.19 34.9961Z" fill="#A2A7AA"/>
<path fill-rule="evenodd" clip-rule="evenodd" d="M1419.9 52.2329H1846.81C1857.2 57.6024 1867.36 63.361 1877.27 69.4698H1389.54C1399.44 63.3409 1409.56 57.5911 1419.9 52.2329Z" fill="#A5A9AC"/>
<path fill-rule="evenodd" clip-rule="evenodd" d="M1389.53 69.4697H1877.25C1886.71 75.3061 1895.94 81.4667 1904.94 87.9386H1361.89C1370.88 81.4567 1380.1 75.2966 1389.53 69.4697Z" fill="#A8ABAF"/>
<path fill-rule="evenodd" clip-rule="evenodd" d="M1361.89 87.9517H1904.94C1912.62 93.4768 1920.09 99.2224 1927.38 105.189H1339.5C1346.78 99.2078 1354.24 93.4593 1361.89 87.9517Z" fill="#AAAFB2"/>
<path fill-rule="evenodd" clip-rule="evenodd" d="M1339.5 105.188H1927.39C1934.18 110.74 1940.82 116.511 1947.28 122.425H1319.63C1326.09 116.493 1332.72 110.745 1339.5 105.188Z" fill="#AEB1B4"/>
<path fill-rule="evenodd" clip-rule="evenodd" d="M1319.64 122.425H1947.29C1953.4 128.015 1959.33 133.774 1965.12 139.675H1301.86C1307.63 133.765 1313.56 128.013 1319.64 122.425Z" fill="#B0B4B6"/>
<path fill-rule="evenodd" clip-rule="evenodd" d="M1301.85 139.662H1965.11C1970.61 145.278 1975.98 151.011 1981.17 156.899H1285.79C1290.99 151.011 1296.36 145.278 1301.85 139.662Z" fill="#B2B6B9"/>
<path fill-rule="evenodd" clip-rule="evenodd" d="M1285.79 156.899H1981.17C1986.16 162.528 1990.97 168.273 1995.68 174.149H1271.28C1275.99 168.286 1280.8 162.528 1285.79 156.899Z" fill="#B8BBBD"/>
<path fill-rule="evenodd" clip-rule="evenodd" d="M1271.28 174.149H1995.69C2000.53 180.18 2005.21 186.34 2009.75 192.618H1257.23C1261.76 186.34 1266.44 180.18 1271.28 174.149Z" fill="#BABEC0"/>
<path fill-rule="evenodd" clip-rule="evenodd" d="M1257.22 192.618H2009.74C2013.81 198.272 2017.77 204.005 2021.62 209.855H1245.31C1249.14 204.018 1253.12 198.272 1257.22 192.618Z" fill="#BCC0C3"/>
<path fill-rule="evenodd" clip-rule="evenodd" d="M1245.31 209.854H2021.62C2025.32 215.509 2028.9 221.268 2032.36 227.091H1234.51C1238 221.268 1241.59 215.522 1245.31 209.854Z" fill="#C1C5C8"/>
<path fill-rule="evenodd" clip-rule="evenodd" d="M1234.52 227.104H2032.37C2035.74 232.785 2038.99 238.518 2042.12 244.341H1224.76C1227.88 238.505 1231.15 232.772 1234.52 227.104Z" fill="#C4C8CB"/>
<path fill-rule="evenodd" clip-rule="evenodd" d="M1224.74 244.341H2042.11C2045.15 250.022 2048.06 255.767 2050.91 261.578H1215.9C1218.74 255.767 1221.68 250.022 1224.74 244.341Z" fill="#C8CBCE"/>
<path fill-rule="evenodd" clip-rule="evenodd" d="M1215.9 261.578H2050.91C2053.64 267.259 2056.27 273.017 2058.78 278.828H1207.94C1210.48 273.017 1213.15 267.259 1215.9 261.578Z" fill="#CACED0"/>
<path fill-rule="evenodd" clip-rule="evenodd" d="M1207.95 278.815H2058.79C2061.27 284.508 2063.63 290.241 2065.86 296.065H1200.84C1203.09 290.254 1205.47 284.508 1207.95 278.815Z" fill="#CCCFD1"/>
<path fill-rule="evenodd" clip-rule="evenodd" d="M1200.83 296.064H2065.85C2068.21 302.16 2070.44 308.308 2072.54 314.533H1194.07C1196.2 308.308 1198.45 302.16 1200.83 296.064Z" fill="#CFD1D3"/>
<path fill-rule="evenodd" clip-rule="evenodd" d="M1194.07 314.533H2072.54C2074.43 320.227 2076.26 325.973 2077.96 331.783H1188.52C1190.27 325.973 1192.11 320.227 1194.07 314.533Z" fill="#D3D5D6"/>
<path fill-rule="evenodd" clip-rule="evenodd" d="M1188.52 331.77H2077.96C2079.63 337.464 2081.23 343.223 2082.67 348.994H1183.71C1185.2 343.223 1186.82 337.477 1188.52 331.77Z" fill="#D6D8D9"/>
<path fill-rule="evenodd" clip-rule="evenodd" d="M301.998 644.575V632.267C281.064 632.267 274.904 628.57 274.904 616.262V522.659C274.904 474.632 242.881 463.556 219.497 463.556C196.112 463.556 176.398 475.864 164.09 504.19C155.465 475.864 136.996 463.556 109.902 463.556C85.2728 463.556 69.2552 478.328 61.8754 500.494H60.6432V466.02L0.294922 468.472V480.78C21.2281 480.78 27.3888 484.476 27.3888 496.784V616.249C27.3888 628.557 21.2281 632.254 0.294922 632.254V644.562H92.6656V632.254C69.2552 632.254 63.1075 628.557 63.1075 616.249V539.896C63.1075 493.088 84.0407 479.535 101.278 479.535C124.675 479.535 133.3 493.088 133.3 518.95V644.575H194.88V632.267C175.166 632.267 169.019 628.57 169.019 616.262V539.909C169.019 493.101 189.952 479.548 207.189 479.548C230.586 479.548 239.211 493.101 239.211 518.963V644.588L301.998 644.575ZM455.936 555.888C455.936 494.333 420.23 463.556 375.886 463.556C329.091 463.556 293.386 506.642 293.386 557.133C293.386 606.405 329.091 649.491 375.886 649.491C416.521 649.491 437.467 633.486 453.471 607.611L444.847 602.696C430.074 621.165 414.069 637.169 388.208 637.169C356.185 637.169 334.02 607.611 334.02 555.875L455.936 555.888ZM334.02 542.36C334.02 515.253 338.948 477.083 375.886 477.083C412.837 477.083 417.753 515.253 417.753 542.36H334.02Z" fill="#9A9FA2"/>
<path fill-rule="evenodd" clip-rule="evenodd" d="M451.007 468.459V480.767C470.708 480.767 476.869 484.463 476.869 496.772V616.236C476.869 628.544 470.708 632.241 451.007 632.241V644.549H542.133V632.241C518.735 632.241 512.588 628.544 512.588 616.236V542.347C512.588 514.021 531.057 479.522 558.151 479.522C571.704 479.522 587.709 486.915 587.709 518.937V644.562H650.508V632.254C630.807 632.254 623.414 628.557 623.414 616.249V532.503C623.414 478.316 593.869 463.556 568.008 463.556C542.146 463.556 523.677 478.329 510.123 501.7H508.891V466.007L451.007 468.459ZM686.214 409.368C676.37 456.15 671.441 466.007 636.955 468.472V480.78H664.049V603.941C664.049 640.879 683.763 649.491 710.844 649.491C747.781 649.491 757.639 628.57 757.639 594.097V587.91H747.781V596.548C747.781 626.106 734.241 637.182 719.455 637.182C709.598 637.182 699.741 633.486 699.741 617.468V480.78H751.465V468.472H699.741V409.368H686.214Z" fill="#9A9FA2"/>
<path fill-rule="evenodd" clip-rule="evenodd" d="M916.492 601.45C916.492 610.062 914.028 627.312 901.707 627.312C895.546 627.312 890.63 624.861 890.63 606.392V515.253C890.63 475.864 866.014 463.556 817.974 463.556C783.487 463.556 753.929 483.244 753.929 505.409C753.929 517.744 762.554 527.575 776.094 527.575C788.416 527.575 797.028 517.744 797.028 505.409C797.028 495.578 790.867 488.185 781.023 485.721C792.099 479.535 803.188 477.083 816.742 477.083C830.282 477.083 854.912 480.78 854.912 500.494V534.967C822.902 546.057 744.085 563.293 744.085 606.405C744.085 635.937 769.947 649.491 797.041 649.491C825.366 649.491 847.532 640.879 857.376 613.772H858.608C861.072 633.486 866.001 647.026 888.166 647.026C915.26 647.026 927.568 626.106 927.568 601.45H916.492ZM854.912 579.285C854.912 611.308 833.978 633.473 810.581 633.473C793.331 633.473 784.719 621.164 784.719 605.147C784.719 571.918 829.05 553.423 854.912 547.263V579.285Z" fill="#9A9FA2"/>
<path fill-rule="evenodd" clip-rule="evenodd" d="M990.381 644.575V632.267C968.216 632.267 962.055 628.57 962.055 616.262V387.216L898.023 388.435V401.989C920.189 401.989 926.349 405.685 926.349 417.993V616.262C926.349 628.57 920.189 632.267 898.023 632.267V644.575H990.381Z" fill="#9A9FA2"/>
<path fill-rule="evenodd" clip-rule="evenodd" d="M1097.51 643.33V631.022C1066.72 631.022 1059.34 623.629 1059.34 606.405V514.047H1172.63V606.405C1172.63 623.629 1165.24 631.022 1136.91 631.022V643.33H1246.52V631.022C1216.96 631.022 1210.8 623.629 1210.8 606.405V420.444C1210.8 403.195 1216.96 395.828 1245.28 395.828V383.52H1136.91V395.828C1165.24 395.828 1172.63 403.195 1172.63 420.444V500.494H1059.34V420.444C1059.34 403.195 1066.72 395.828 1097.51 395.828V383.52H986.685V395.828C1015.01 395.828 1021.16 403.195 1021.16 420.444V606.405C1021.16 623.629 1015 631.022 986.685 631.022V643.33H1097.51Z" fill="#2F2420"/>
<path fill-rule="evenodd" clip-rule="evenodd" d="M1442.33 546.057H1430.02C1414.01 619.919 1374.6 631.022 1324.11 631.022C1300.72 631.022 1292.08 626.106 1292.08 613.772V514.047C1332.72 515.266 1349.97 518.963 1354.91 559.597H1365.99V454.931H1354.91C1349.97 496.81 1332.72 500.507 1292.08 501.713V420.444C1292.08 401.976 1311.8 395.828 1333.96 395.828C1384.45 395.828 1405.4 419.238 1423.87 475.877H1434.96L1433.71 383.52H1218.22V395.828C1247.75 395.828 1253.91 403.195 1253.91 420.444V606.405C1253.91 623.629 1247.75 631.022 1218.22 631.022V643.33H1439.87L1442.33 546.057Z" fill="#2F2420"/>
<path fill-rule="evenodd" clip-rule="evenodd" d="M1521.13 643.33V631.022C1487.9 631.022 1480.5 626.106 1480.5 611.308C1480.5 600.231 1491.58 578.079 1497.75 557.12H1587.65C1597.48 579.285 1608.57 608.843 1608.57 617.455C1608.57 628.544 1607.33 631.009 1579.01 631.009V643.317H1683.68V631.009C1661.51 631.009 1652.9 623.616 1641.8 595.29L1559.3 381.016H1545.77L1469.42 590.387C1460.78 613.772 1452.17 631.022 1421.39 631.022V643.33H1521.13ZM1503.91 541.115L1540.84 441.391L1581.48 541.115H1503.91Z" fill="#2F2420"/>
<path fill-rule="evenodd" clip-rule="evenodd" d="M1848.69 546.057H1836.39C1820.38 619.919 1780.99 631.022 1747.72 631.022C1729.26 631.022 1720.64 623.629 1720.64 606.405V420.444C1720.64 403.195 1726.8 395.828 1756.36 395.828V383.52H1648V395.828C1675.08 395.828 1681.23 403.195 1681.23 420.444V606.405C1681.23 623.629 1675.07 631.022 1648 631.022V643.33H1846.24L1848.69 546.057Z" fill="#2F2420"/>
<path fill-rule="evenodd" clip-rule="evenodd" d="M2026.03 472.168L2023.58 383.507H1808.06L1806.84 472.168H1817.92C1826.53 425.36 1843.78 395.815 1896.72 395.815V606.392C1896.72 623.616 1890.56 631.009 1861.03 631.009V643.317H1971.85V631.009C1942.3 631.009 1936.14 623.616 1936.14 606.392V395.815C1989.08 395.815 2006.33 425.347 2014.94 472.168H2026.03Z" fill="#2F2420"/>
<path fill-rule="evenodd" clip-rule="evenodd" d="M2131.94 643.33V631.022C2099.92 631.022 2093.77 623.629 2093.77 606.405V514.047H2205.82V606.405C2205.82 623.629 2199.66 631.022 2171.34 631.022V643.33H2279.71V631.022C2251.38 631.022 2243.99 623.629 2243.99 606.405V420.444C2243.99 403.195 2251.38 395.828 2278.46 395.828V383.52H2170.11V395.828C2199.64 395.828 2205.8 403.195 2205.8 420.444V500.494H2093.76V420.444C2093.76 403.195 2099.92 395.828 2130.7 395.828V383.52H2019.87V395.828C2048.19 395.828 2054.34 403.195 2054.34 420.444V606.405C2054.34 623.629 2048.18 631.022 2019.87 631.022V643.33H2131.94ZM982.988 351.484H985.452V344.091H986.684C989.149 344.091 990.381 345.336 991.613 349.007L992.845 351.484H996.542L994.077 347.788C992.845 345.337 991.626 344.091 990.381 344.091C994.077 344.091 995.309 341.64 995.309 339.176C995.309 337.931 994.077 334.234 990.381 334.234H982.988V351.484ZM985.452 341.627V336.686H989.149C991.613 336.686 992.845 337.931 992.845 339.163C992.845 341.614 991.613 341.614 989.149 341.614H985.452V341.627ZM1002.7 342.846C1002.7 350.239 996.542 355.181 989.162 355.181C985.895 355.17 982.765 353.867 980.456 351.556C978.147 349.245 976.847 346.113 976.84 342.846C976.84 335.479 983.001 330.538 989.162 330.538C996.542 330.538 1002.7 335.479 1002.7 342.846ZM1005.15 342.846C1005.15 334.234 997.761 328.074 989.149 328.074C980.524 328.074 974.376 334.234 974.376 342.846C974.376 351.484 980.524 357.645 989.149 357.645C997.774 357.645 1005.15 351.484 1005.15 342.846ZM281.064 351.484V350.239H279.832C269.975 350.239 267.524 347.788 267.524 337.931V251.734C267.524 241.89 269.975 239.412 279.832 239.412H281.064V232.033H230.56V239.412H231.792C241.649 239.412 244.114 241.877 244.114 251.734V337.931C244.114 347.788 241.649 350.239 231.792 350.239H230.56V357.632H236.721C246.578 357.632 251.506 356.387 255.19 356.387C260.118 356.387 265.047 357.632 273.672 357.632H281.064V351.484ZM404.212 254.185H379.583L378.351 252.953V260.333H379.583C383.279 260.333 386.975 261.565 388.208 262.797C389.44 264.029 390.659 266.493 390.659 271.422V326.842L326.627 254.185L325.395 252.953V254.185H298.301L297.069 252.953V260.333H298.301C306.926 260.333 309.377 264.029 309.377 270.19V340.382C309.377 346.543 306.926 350.239 298.301 350.239H297.069V357.632H298.301C301.998 357.632 310.61 356.387 314.306 356.387C318.002 356.387 325.395 357.632 329.091 357.632H330.324V350.239H329.091C320.467 348.994 319.234 348.994 319.234 339.163C319.234 339.163 318.002 289.891 318.002 275.118L391.891 357.632V358.851H400.516V270.203C400.516 264.042 401.748 260.346 410.373 260.346H411.605V252.966L410.373 254.198L404.212 254.185ZM515.039 255.43V252.966L513.807 254.198H421.449V283.743H428.842V282.511C430.074 266.506 436.235 262.81 447.311 262.81H458.4V340.382C458.4 346.543 457.168 350.239 448.543 350.239H446.079V357.632H452.239C460.864 356.387 464.561 356.387 468.257 356.387C471.94 356.387 476.869 356.387 484.262 357.632H490.422V350.239H489.19C480.565 350.239 479.333 346.543 479.333 340.382V262.81H490.422C501.499 262.81 507.659 266.506 508.891 282.511V283.743H516.284V282.511L515.039 255.43ZM601.236 328.074H600.004V329.319C597.54 346.543 587.683 349.007 572.91 349.007C566.749 349.007 563.053 347.788 560.589 346.556C559.044 344.871 558.168 342.68 558.125 340.395V308.386H567.982C574.142 308.386 577.826 308.386 580.29 310.85C581.522 312.082 582.754 315.765 582.754 320.694V321.939H590.147V320.694V303.457V286.207H582.754V287.44C581.522 296.064 580.29 299.761 567.982 299.761H558.125V261.578H569.201C585.205 261.578 591.366 265.274 593.83 278.828V280.06H601.21V278.828L599.978 255.43V252.966L598.746 254.198H527.321L526.089 252.966V260.346H527.321C537.165 260.346 538.397 264.042 538.397 270.203V340.395C538.397 346.556 537.165 350.252 527.321 350.252H526.089V357.645H527.321C531.018 357.645 539.643 356.4 549.487 356.4L595.049 357.645H604.906V356.4C604.906 349.007 606.139 337.931 607.371 330.538V328.087L601.236 328.074ZM720.688 310.837H686.214L684.982 309.605V316.998H686.214C689.91 316.998 692.375 318.23 693.607 319.462C694.839 319.462 694.839 321.926 694.839 325.623V345.337C689.91 349.007 683.763 350.252 677.602 350.252C667.745 350.252 659.133 346.556 651.74 339.176C641.883 329.319 636.955 315.765 636.955 299.761C636.955 287.439 640.651 276.363 648.044 270.203C654.205 264.042 662.817 260.346 673.906 260.346C693.607 260.346 707.147 268.971 708.392 284.975V286.207H714.553V257.881H713.321C699.78 254.185 687.459 251.721 675.151 251.721C632.052 251.721 613.57 277.582 613.57 304.676C613.57 309.592 614.802 329.306 628.356 344.078C638.213 353.935 652.985 358.851 671.454 358.851C694.852 358.851 712.089 350.239 714.553 350.239L715.785 348.994V326.842C715.785 323.158 715.785 320.668 717.017 319.449C719.481 318.217 720.714 316.985 724.41 316.985H725.642V309.592L724.41 310.824L720.688 310.837ZM932.497 293.6C921.421 287.44 911.564 282.524 911.564 273.899C911.564 270.203 912.796 266.506 915.26 265.274C917.711 261.578 922.64 260.346 927.568 260.346C942.354 260.346 950.966 267.738 952.198 282.511L953.43 283.743H960.81L959.578 256.649V255.417H958.346C949.721 251.721 937.412 251.721 932.484 251.721C895.533 251.721 895.533 280.047 895.533 282.511C895.533 300.98 910.318 308.373 925.091 315.753C936.167 320.668 947.256 325.609 947.256 335.467C947.256 342.833 939.864 351.471 927.542 351.471C918.917 351.471 905.377 345.311 901.681 328.061V326.829H893.069V328.061L894.301 353.923H895.533C905.39 357.619 917.698 358.838 926.323 358.838C938.632 358.838 948.489 355.168 954.649 348.981C960.81 344.065 963.274 336.673 963.274 328.061C963.287 309.605 947.282 300.98 932.497 293.6ZM877.077 254.185H835.224L833.991 252.953V260.333H835.224C843.848 260.333 846.3 264.029 846.3 270.19V340.382C846.3 347.775 842.603 350.239 833.991 351.471H831.527C825.367 351.471 817.987 348.994 810.594 336.673C810.594 336.673 797.054 310.824 793.344 304.663C806.898 299.735 813.058 288.646 813.058 280.034C813.058 271.409 810.594 265.248 805.665 260.32C799.505 255.404 790.893 251.695 778.585 251.695H765.031C760.116 252.927 755.187 252.927 751.491 252.927C747.794 252.927 744.098 252.927 740.402 251.695H731.79V259.088H733.022C741.647 259.088 744.098 262.784 744.098 268.945V340.356C744.098 346.517 741.647 350.213 733.022 350.213H731.79V357.606H737.937C746.562 357.606 750.259 356.361 753.942 356.361C757.638 356.361 761.335 357.606 769.947 357.606H776.107V350.213H774.875C766.25 350.213 763.799 346.517 763.799 340.356V308.347C772.424 308.347 773.656 309.579 779.804 321.887L784.732 332.976C793.344 351.445 804.433 357.593 822.902 357.593H840.139C847.519 356.348 852.447 356.348 856.144 356.348C859.84 356.348 863.524 356.348 872.148 357.593H878.296V350.2H877.064C867.22 350.2 865.988 346.504 865.988 340.343V270.151C865.988 263.99 867.22 260.294 877.064 260.294H878.296V252.914L877.077 254.185ZM772.411 302.225C769.947 302.225 767.483 300.993 765.018 300.993V259.127H768.715C776.094 259.127 781.023 260.359 784.719 265.287C790.88 271.448 792.099 281.292 792.099 283.756C792.112 296.064 785.964 302.225 772.411 302.225ZM55.7148 232.02H92.6526L74.1837 201.242L55.7148 232.02ZM148.059 264.042L166.541 296.064L183.778 264.042H148.059ZM148.059 328.074L166.528 296.064H129.578L111.109 264.042H74.1578L55.6888 232.02L37.2199 264.042L18.7509 232.02L0.281982 264.042L18.7509 296.064L0.281982 328.074L18.7509 360.096L37.2199 328.074L55.6888 360.096H92.6397L74.1578 392.118H111.109L129.578 360.096H166.528L184.997 328.074H148.059ZM74.1837 328.074L55.7148 296.064H92.6656L111.135 328.074H74.1837Z" fill="#2F2420"/>
<path fill-rule="evenodd" clip-rule="evenodd" d="M37.2458 264.042L55.7148 232.02H18.7639L37.2458 264.042ZM111.122 264.042H74.1837L55.7148 232.02H92.6527L74.1837 201.242H111.122L129.591 232.02H166.541L183.778 264.042H148.059L166.541 296.064H129.591L111.122 264.042ZM74.1837 392.118L92.6527 360.096H55.7148L74.1837 392.118ZM55.7148 360.096L37.2458 328.074L18.7639 360.096H55.7148ZM148.059 328.074H185.01L166.541 296.064L148.059 328.074ZM111.122 328.074L92.6527 296.064H55.7148L74.1837 328.074H111.122Z" fill="#9A9FA2"/>
</g>
<defs>
<clipPath id="clip0_39_238">
<rect width="2280" height="650" fill="white"/>
</clipPath>
</defs>
</svg>
