<svg width="2280" height="1247" viewBox="0 0 2280 1247" fill="none" xmlns="http://www.w3.org/2000/svg">
<g clip-path="url(#clip0_39_270)">
<path fill-rule="evenodd" clip-rule="evenodd" d="M0.294922 416.64H88.5409L108.048 342.33H159.136C226.942 342.33 272.452 313.539 285.461 260.583C293.827 229.002 286.395 208.561 265.968 191.856C246.461 179.781 216.734 176.993 173.999 176.993H61.6159L0.294922 416.64ZM122.911 283.812L134.986 235.513H162.858C193.506 235.513 208.369 238.301 202.805 260.596C197.228 281.036 180.51 283.825 149.849 283.825L122.911 283.812ZM276.162 416.64H356.963L375.536 344.19C382.968 316.327 400.62 304.239 432.201 304.239C436.844 304.239 442.421 304.239 447.985 305.173L466.558 234.579H460.06C427.545 234.579 405.25 244.799 387.611 270.803L395.964 239.222H321.66L276.162 416.64ZM451.721 416.64H531.601L578.046 239.222H497.231L451.721 416.64ZM501.875 221.57H582.676L595.685 171.416H514.883L501.875 221.57ZM577.112 416.64H656.059L680.209 320.957C685.786 301.451 698.782 290.31 715.5 290.31C735.94 290.31 741.504 300.53 735.006 324.667L711.79 416.64H789.816L814.9 321.878C820.477 300.53 830.697 290.297 851.125 290.297C870.631 290.297 876.208 300.517 870.631 320.944L845.548 416.62H924.49L955.15 295.861C965.38 256.848 943.07 234.553 896.64 234.553C866.909 234.553 842.759 243.839 817.688 265.213C807.468 243.852 791.684 234.553 765.68 234.553C736.887 234.553 711.803 243.839 689.508 265.213L696.006 239.209H623.557L577.112 416.64ZM1108.42 416.64H1189.23L1191.09 411.06C1184.6 407.34 1183.67 403.63 1185.51 396.2L1210.59 298.662C1217.11 274.513 1216.17 260.57 1197.6 248.508C1185.51 240.143 1159.52 232.711 1123.29 232.711C1052.7 232.711 1010.9 254.072 1000.68 293.085H1078.7C1083.35 281.01 1092.63 276.367 1109.35 276.367C1128.86 276.367 1137.21 280.077 1134.44 290.297C1129.79 307.015 1114.93 305.16 1075 308.87C1012.77 316.301 981.19 327.442 970.97 366.46C962.6 401.75 983.04 423.12 1028.55 423.12C1058.28 423.12 1084.28 415.69 1107.51 398.97L1108.42 416.64ZM1122.35 337.69L1119.56 346.05C1113.98 369.28 1100.05 380.42 1072.19 380.42C1057.33 380.42 1050.83 373.93 1053.62 364.64C1058.26 346.97 1081.48 348.83 1122.35 337.69ZM1225.46 416.64H1306.26L1324.83 344.19C1332.28 316.327 1349.94 304.239 1382.43 304.239C1386.15 304.239 1392.64 304.239 1397.29 305.173L1415.87 234.579H1409.36C1377.79 234.579 1355.48 244.799 1336.91 270.803L1345.27 239.222H1271.89L1225.46 416.64ZM1384.29 486.31C1401 487.23 1414.03 488.16 1423.3 488.16C1451.16 488.16 1471.61 486.31 1491.12 473.3C1505.05 463.08 1518.04 443.57 1535.71 415.71L1645.32 239.235H1571L1508.78 346.05L1501.34 239.235H1420.54L1445.62 401.79C1447.5 407.36 1446.55 414.79 1445.62 419.44C1442.83 430.58 1434.48 434.3 1420.54 434.3H1397.33L1384.29 486.31ZM672.79 698.08H763.812L780.53 599.61L864.133 600.56L845.548 698.08L936.58 699.01L983.03 446.35H892.93L877.129 533.67H793.539L811.178 445.43H721.09L672.79 698.08ZM1140.93 645.14C1137.21 654.44 1126.07 660 1110.29 660C1086.14 660 1074.98 647.91 1074.98 625.63V621.91H1227.31C1228.25 615.4 1228.25 610.77 1228.25 604.28C1229.18 541.11 1192.02 506.74 1117.72 506.74C1044.34 505.82 994.18 549.46 993.25 618.19C992.31 671.15 1033.19 706.44 1104.71 706.44C1165.1 706.44 1205.02 684.15 1220.83 645.14H1140.93ZM1078.69 585.68C1082.41 563.39 1097.26 551.33 1117.7 551.33C1139.07 551.33 1151.15 563.4 1150.22 585.68H1078.69ZM1389.86 699.93L1469.76 700.87V695.29C1464.18 690.66 1462.31 684.15 1462.31 676.72C1463.25 673 1464.19 668.35 1465.1 661.85L1479.03 594.04C1480.91 581.04 1481.82 571.75 1481.82 567.1C1482.75 528.08 1450.25 508.58 1384.29 507.66C1315.56 507.66 1277.47 527.16 1270.03 569.89H1348.06C1349.94 557.81 1359.2 551.31 1376.87 551.31C1394.53 551.31 1403.79 557.81 1402.88 567.1C1402.88 582.88 1387.07 581.96 1350.85 585.67C1280.26 591.25 1247.75 608.9 1246.82 653.49C1245.91 684.14 1271.9 706.43 1314.64 706.43C1339.72 706.43 1363.88 698.07 1387.09 683.2L1389.86 699.93ZM1395.43 617.28C1392.64 646.08 1375.01 661.87 1349.93 661.87C1336.91 661.87 1328.55 655.36 1328.55 647C1329.49 624.7 1352.72 628.42 1395.43 617.28ZM1504.1 700.87H1584.94L1628.58 448.22H1548.69L1504.1 700.87ZM1745.61 700.87L1755.82 646.99C1752.12 647.93 1748.4 647.93 1745.61 647.93C1729.83 647.93 1722.38 643.3 1722.38 634C1723.32 632.14 1723.32 630.27 1724.26 628.42L1736.32 555.97H1768.85L1777.22 516.02L1744.68 515.09L1755.82 457.5H1676.88L1666.65 515.09H1636.94L1629.52 555.96H1658.3L1643.45 639.56C1641.57 647.93 1641.57 655.34 1641.57 660C1640.66 687.86 1662.01 704.59 1701.02 704.59C1713.11 704.59 1728.89 703.66 1745.61 700.87ZM1775.32 701.8H1854.28L1871.94 602.4C1876.57 578.26 1886.8 566.18 1909.09 566.18C1924.88 566.18 1933.23 574.54 1933.23 590.31C1933.23 592.19 1932.3 597.76 1931.38 605.18L1914.66 701.79H1995.46L2014.03 591.25C2015.89 583.83 2015.89 577.32 2015.89 571.75C2016.82 533.66 1991.75 509.52 1948.09 509.52C1923.93 509.52 1903.5 518.81 1884.92 536.46L1901.64 449.15H1820.83L1775.32 701.8Z" fill="#909090"/>
<path fill-rule="evenodd" clip-rule="evenodd" d="M1787.41 0.5L1953.68 134.258V326.534H1786.5L1787.41 0.5ZM2132.94 329.323L2279.71 446.35V925.66L1957.38 926.57V1246.1H1471.6L1300.7 1078.91H1784.62V756.6H2132.94V329.323ZM1127.93 926.57L979.3 756.6H1315.56V926.57H1127.93Z" fill="#C82E37"/>
<path fill-rule="evenodd" clip-rule="evenodd" d="M2030.78 971.16C2029.84 960.95 2021.48 957.23 2013.12 957.23C2007.55 957.23 1997.34 959.11 1997.34 969.32C1997.34 975.83 2001.06 977.68 2005.71 978.62L2025.21 983.25C2034.51 985.1 2041 990.66 2041 1001.82C2041 1017.63 2026.15 1022.26 2014.07 1022.26C2001.08 1022.26 1996.42 1018.54 1992.72 1015.75C1987.15 1010.17 1986.21 1004.61 1986.21 998.12H1994.58C1994.58 1011.12 2004.79 1014.84 2014.08 1014.84C2020.6 1014.84 2031.74 1012.96 2031.74 1002.75C2031.74 995.33 2028.95 993.45 2016.87 990.66L2002.94 986.97C1998.31 986.03 1988.08 983.25 1988.08 971.16C1988.08 960.02 1995.52 948.86 2012.24 948.86C2036.38 948.86 2039.17 963.73 2039.17 971.16H2030.78ZM2110.67 1020.4V979.52V961.9L2091.14 1020.42H2081.86L2062.36 961.9H2061.42C2061.42 968.38 2062.36 977.68 2062.36 979.52V1020.4H2053.06V950.74H2066.08L2086.49 1010.17L2106 950.74H2119.93V1020.4H2110.67Z" fill="#909090"/>
</g>
<defs>
<clipPath id="clip0_39_270">
<rect width="2280" height="1247" fill="white"/>
</clipPath>
</defs>
</svg>
