<svg width="2428" height="422" viewBox="0 0 2428 422" fill="none" xmlns="http://www.w3.org/2000/svg">
<g clip-path="url(#clip0_39_279)">
<mask id="mask0_39_279" style="mask-type:luminance" maskUnits="userSpaceOnUse" x="0" y="0" width="2428" height="422">
<path d="M2428 0H0V422H2428V0Z" fill="white"/>
</mask>
<g mask="url(#mask0_39_279)">
<path fill-rule="evenodd" clip-rule="evenodd" d="M152.282 2.6701C159.052 2.6701 168.105 4.92003 177.158 13.98C186.198 20.76 186.198 34.3301 183.928 45.6401C181.672 54.6801 179.402 61.46 168.105 68.24C156.796 75.02 145.486 75.0201 145.486 75.0201V117.98L165.836 136.07L145.486 151.9V212.96C145.486 212.96 165.836 199.39 179.402 172.25L181.672 167.72C181.672 176.76 181.672 190.34 172.619 210.69C168.092 224.26 156.796 237.83 140.96 246.87C116.084 260.43 97.991 260.43 77.641 258.17C52.7651 251.39 30.1459 237.83 16.5795 215.22C5.26991 199.39 0.743408 179.03 0.743408 158.68C3.01311 117.97 32.4026 84.05 66.332 70.49C70.858 68.23 73.115 68.23 79.898 68.23C77.641 68.23 73.115 70.4901 68.588 75.0101C57.2786 81.7801 48.2387 95.3601 43.7122 106.67L111.557 77.2701V172.25L57.2786 199.39C64.062 208.43 82.155 222.01 97.978 222.01C127.38 226.52 143.203 212.97 143.203 212.97V151.91L120.584 136.09L143.203 117.99V75.0401C131.753 72.5901 120.434 69.57 109.287 65.99C95.721 63.73 55.0089 52.4201 50.4825 52.4201C43.6993 50.1601 34.6464 50.16 30.1329 54.69C25.6194 59.21 23.3627 66.0001 25.6064 72.7801C25.6064 77.3101 27.8762 79.56 30.1329 81.82C30.1329 81.82 27.8762 81.8201 23.3627 79.5601C16.5795 75.0401 9.78331 66 9.78331 54.69C9.78331 41.12 14.3098 27.5401 27.8891 18.5001C36.9291 11.7201 48.2387 7.19001 61.8051 9.46001C82.155 11.72 109.3 23.0301 134.176 29.8101C143.216 32.0701 149.999 32.0701 156.796 27.5401C159.052 25.2901 165.836 20.77 161.322 13.98C154.539 4.94003 145.486 4.9401 136.446 2.6701C143.229 0.410097 145.499 0.410097 152.282 2.6701ZM70.871 190.37V97.6401L43.7382 111.21C43.7382 111.21 36.955 127.03 36.955 149.65C39.2117 167.75 48.2646 188.1 55.0478 197.15L70.871 190.37ZM414.596 93.1301C414.596 93.1301 391.976 106.7 378.41 115.75L346.751 131.59V219.77L333.184 228.83L335.441 231.09L346.751 222.05L385.193 255.97L453.038 203.96L450.768 201.69L414.583 231.09L382.923 201.69V192.65L443.985 147.42L414.596 93.1301ZM414.596 165.49L382.936 188.11V113.48L414.596 165.49ZM240.477 289.87C249.516 289.87 263.083 292.13 283.432 283.09C303.782 271.79 312.835 251.43 312.835 228.82L315.092 197.15V127.05L326.401 118.01V115.75L312.835 124.79L283.432 93.1301L244.99 124.79V13.99L197.495 50.1701C199.751 52.4301 206.548 52.43 206.548 63.74V219.77L186.198 233.33L188.455 235.59L197.508 228.83L224.64 253.71L267.609 219.77L265.34 217.51L256.3 226.55L244.99 215.25V129.32L256.3 118.01L276.649 140.63V215.25C276.649 235.59 276.649 260.47 265.34 271.79C254.043 285.33 251.773 285.33 240.477 289.87ZM536.719 280.83C518.626 278.57 511.843 269.53 511.843 260.47C511.843 255.95 518.626 244.63 527.679 244.63C538.989 242.37 548.029 246.91 557.081 258.21L597.781 213H595.524L584.214 224.29C575.174 213 559.351 203.94 543.515 201.67V68.2501L645.276 255.95C645.276 255.95 647.533 258.21 652.059 258.21C654.316 258.21 654.316 255.95 654.316 255.95V68.2501C663.369 66.0001 674.665 61.47 681.449 56.95C701.798 36.6 692.758 13.99 690.501 11.72C690.501 20.77 681.449 29.81 670.152 32.07C654.316 32.07 643.019 18.5001 643.019 18.5001L604.577 63.73L606.846 65.99L618.156 52.4201C631.722 65.9901 640.775 65.9901 652.072 68.2501V176.8L575.187 38.85C568.404 27.54 559.364 16.2501 541.271 16.2501C523.178 16.2501 509.612 32.0701 507.355 47.8901C505.099 63.7301 507.355 68.24 507.355 68.24C507.355 68.24 509.612 50.1501 520.922 50.1501C532.231 50.1501 536.758 59.19 541.271 65.97V106.68C529.962 106.68 502.829 106.68 502.829 136.09C502.829 145.13 509.612 156.44 514.139 160.96C520.922 165.49 527.705 165.49 527.705 165.49C527.705 165.49 518.652 160.96 520.922 151.92C523.191 142.88 541.271 142.88 541.271 145.14V201.67C532.231 201.67 507.355 201.67 493.776 224.29C486.993 237.87 486.993 253.71 496.033 265.01C502.79 274.03 514.1 285.33 536.719 280.83ZM753.807 93.1301C753.807 93.1301 733.457 106.7 717.621 115.75L685.962 131.59V219.77L672.396 228.83L674.652 231.09L688.219 222.05L724.404 255.97L792.236 203.96L789.98 201.69L753.794 231.09L724.391 201.69V192.65L783.183 147.42L753.807 93.1301ZM753.807 165.49L724.404 188.11V113.48L753.807 165.49ZM846.528 255.95L812.599 228.82L799.032 240.12L796.763 237.86L812.599 226.54V151.92C812.599 120.26 783.196 129.32 785.466 95.3901C785.466 81.8201 799.032 70.51 808.072 65.99C814.856 63.73 823.908 63.73 823.908 63.73C823.908 63.73 810.342 70.51 812.599 84.08C817.125 102.17 848.784 102.17 851.041 127.03V212.97L873.66 231.06L880.444 226.52V133.82L866.877 122.51L898.536 93.1L927.939 120.24L916.629 131.55V212.96L946.032 235.55L950.558 233.29V133.8L936.992 122.49L968.65 93.09L1000.3 117.97L1011.61 106.66L1013.86 108.91L986.73 133.79V212.95L916.629 255.9L880.444 228.77L846.528 255.95ZM2271.2 93.1301C2271.2 93.1301 2248.59 106.7 2235.03 115.75L2203.37 131.59V219.77L2189.79 228.83L2192.08 231.09L2203.37 222.05L2241.8 255.97L2309.66 203.96L2307.38 201.69L2271.2 231.09L2239.55 201.69V192.65L2300.62 147.42L2271.2 93.1301ZM2271.2 165.49L2239.55 188.11V113.48L2271.2 165.49ZM1959.14 131.57H1961.4L1972.69 122.52L1990.79 142.87V215.24L1981.73 222.04L2011.15 255.95L2040.52 226.54L2029.23 212.98V127.05L2036.02 120.26L2056.36 145.14V217.5L2049.58 224.28L2076.72 253.7L2106.11 226.54L2094.82 215.24V127.05L2101.6 120.26L2124.21 145.14V215.24L2117.44 222.04L2146.82 255.95L2187.52 217.5L2185.28 215.24L2176.23 224.28L2160.4 208.46V127.05L2173.96 115.74V113.48L2158.12 124.78L2130.99 95.3901L2092.56 124.78L2065.4 95.3901L2026.98 124.78L1999.85 95.3901L1959.14 131.57Z" fill="#383028"/>
<path fill-rule="evenodd" clip-rule="evenodd" d="M1877.73 129.32L1889.02 120.26L1904.86 140.61V222.04L1893.55 233.33L1895.81 235.58L1907.1 224.28L1934.26 255.95L1972.69 222.04L1970.44 219.75L1959.14 228.82L1943.3 210.71V129.32L1956.86 118.01V115.74L1943.3 127.05L1916.16 95.3901L1877.73 129.32ZM1889.02 59.2001L1916.16 34.3301L1941.03 59.2001L1911.64 86.3501L1889.02 59.2001Z" fill="#383028"/>
<path fill-rule="evenodd" clip-rule="evenodd" d="M1848.31 2.6701C1855.1 2.6701 1866.41 4.92003 1875.44 13.98C1882.23 20.76 1884.51 34.3301 1882.23 45.6401C1879.97 54.6801 1875.45 61.46 1866.39 68.24C1855.1 75.02 1843.8 75.0201 1843.8 75.0201V117.98L1864.14 136.07L1843.8 151.9V212.96C1843.8 212.96 1864.14 199.39 1877.71 172.25L1879.97 167.72C1879.97 176.76 1879.97 190.34 1870.93 210.69C1866.39 224.26 1852.84 237.83 1839.27 246.87C1814.4 260.43 1794.06 260.43 1773.68 258.17C1751.09 251.39 1728.47 237.83 1714.89 215.22C1703.6 199.39 1699.06 179.03 1699.06 158.68C1699.06 117.97 1730.72 84.05 1764.64 70.49C1769.18 68.23 1771.43 68.23 1778.22 68.23C1773.68 68.23 1771.44 70.4901 1766.9 75.0101C1755.6 81.7801 1746.56 95.3601 1742.02 106.67L1809.88 77.2701V172.25L1755.59 199.39C1762.37 208.43 1780.47 222.01 1796.3 222.01C1823.44 226.52 1839.26 212.97 1839.26 212.97V151.91L1818.92 136.09L1839.26 117.99V75.0401C1827.96 72.7701 1814.38 68.25 1805.34 65.99C1794.05 63.73 1753.33 52.4201 1746.55 52.4201C1742.01 50.1601 1732.97 50.16 1728.46 54.69C1723.92 59.21 1721.68 66.0001 1721.68 72.7801C1723.93 77.3101 1726.21 79.56 1728.46 81.82C1728.46 81.82 1726.2 81.8201 1721.68 79.5601C1714.89 75.0401 1708.1 66 1708.1 54.69C1705.84 41.12 1712.64 27.5401 1723.93 18.5001C1735.25 11.7201 1746.55 7.19001 1760.13 9.46001C1780.47 11.72 1807.6 23.0301 1830.22 29.8101C1841.52 32.0701 1848.31 32.0701 1855.1 27.5401C1857.35 25.2901 1861.88 20.77 1857.35 13.98C1852.84 4.94003 1843.8 4.9401 1834.76 2.6701C1841.53 0.410097 1843.81 0.410097 1848.31 2.6701ZM1769.18 190.37V97.6401L1742.02 111.21C1742.02 111.21 1732.99 127.03 1735.27 149.65C1735.27 167.75 1746.56 188.1 1753.36 197.15L1769.18 190.37ZM2343.58 267.25C2339.04 269.53 2320.96 264.99 2316.42 244.63C2311.9 224.29 2325.48 213 2345.83 190.37L2320.96 170.02V127.05C2320.96 127.05 2339.05 120.26 2352.62 111.22L2379.75 93.1301C2379.75 93.1301 2391.04 106.7 2402.37 104.44C2420.46 102.17 2420.46 88.6 2418.2 86.35C2422.72 90.87 2429.5 106.7 2397.84 145.14L2425 165.49V219.75C2425 219.75 2393.34 235.59 2366.18 255.95C2366.18 255.95 2350.37 235.59 2336.79 244.63C2325.48 251.41 2330 262.74 2343.58 267.25ZM2320.96 226.54C2320.96 226.54 2334.54 203.93 2359.41 208.44C2382.01 212.98 2388.8 235.58 2388.8 235.58V181.33L2372.97 167.76C2357.13 185.84 2325.48 210.71 2320.96 226.54ZM2357.13 111.22V154.19L2370.71 167.76C2370.71 167.76 2402.37 142.88 2413.66 118.01C2413.66 118.01 2400.11 138.36 2379.75 131.57C2363.91 127.05 2357.13 111.22 2357.13 111.22ZM1368.91 129.32L1380.21 120.26H1382.46L1371.17 131.57V217.5C1371.17 217.5 1348.55 228.82 1334.99 237.86L1303.34 255.95L1262.62 222.04L1253.58 231.08H1251.33L1262.62 219.75V127.05C1262.62 127.05 1280.72 120.26 1296.54 111.22C1310.12 102.17 1325.93 93.1301 1325.93 93.1301L1368.91 129.32ZM1301.08 206.2L1332.71 235.59V142.88L1301.08 113.48V206.2ZM1448.05 120.26L1472.93 95.3901C1472.93 95.3901 1475.19 97.6401 1479.71 99.9101C1481.97 102.17 1488.75 104.44 1495.55 102.17C1500.06 99.9101 1500.06 97.6401 1504.59 95.3901C1504.59 115.74 1495.55 129.32 1484.22 133.83C1477.47 136.09 1463.89 140.61 1448.05 122.52V215.24L1466.15 228.82L1477.47 219.75H1479.72L1439.01 255.95L1407.35 226.54L1396.06 237.86L1393.8 235.58L1409.64 219.74V140.6L1398.31 122.51L1387.02 131.56H1384.76L1425.47 95.37L1448.05 120.26ZM1554.34 160.98L1599.55 93.1301C1599.55 93.1301 1606.34 99.9101 1617.66 102.17C1631.21 106.7 1644.79 93.1301 1644.79 93.1301C1642.53 111.22 1633.49 131.57 1613.13 133.84C1597.3 136.1 1581.47 122.53 1581.47 122.53L1579.22 129.32L1642.55 226.55L1656.1 215.25L1658.36 217.51L1613.14 255.97L1554.34 160.98Z" fill="#383028"/>
<path fill-rule="evenodd" clip-rule="evenodd" d="M1515.88 70.51C1515.88 54.69 1509.1 45.65 1500.05 45.65L1552.08 11.72V213L1565.64 226.55L1574.68 217.51L1576.96 219.77L1536.25 255.97L1509.09 228.83L1497.79 240.13L1495.53 237.87L1515.87 219.77L1515.88 70.51ZM1090.75 65.99C1090.75 52.42 1083.97 45.64 1074.91 45.64C1061.35 43.37 1059.09 63.73 1059.09 63.73C1059.09 63.73 1056.83 47.89 1068.13 36.6C1074.91 29.81 1088.48 18.5 1106.57 23.03C1126.92 27.56 1133.7 43.38 1133.7 56.95V244.63C1133.7 244.63 1140.49 246.91 1145.01 246.91C1151.8 249.17 1156.32 249.17 1156.32 249.17V23.02H1158.58V54.6801L1199.29 20.76L1230.95 47.89L1244.53 36.58H1246.79L1230.95 50.15V224.27C1230.95 235.56 1228.69 246.89 1217.39 253.68C1194.77 269.52 1165.38 251.4 1138.23 249.14C1120.14 244.6 1090.75 242.36 1081.71 260.44C1079.45 264.98 1079.45 274.02 1088.49 280.8C1106.58 292.1 1183.47 260.44 1210.6 274.02C1235.49 285.32 1235.49 301.15 1230.95 314.73C1224.17 337.35 1194.77 341.87 1194.77 341.87C1194.77 341.87 1210.59 332.83 1206.08 319.27C1203.82 312.49 1199.29 310.21 1183.46 312.49C1149.54 317 1111.1 332.83 1083.97 321.53C1070.4 314.75 1059.09 298.91 1061.35 280.82C1061.35 255.94 1090.75 246.9 1090.75 246.9V156.44C1088.49 154.18 1074.91 154.18 1070.4 160.96C1065.87 172.27 1077.18 176.79 1077.18 176.79C1077.18 176.79 1068.13 176.79 1059.09 167.75C1056.83 163.22 1047.78 149.65 1059.09 133.83C1065.87 122.52 1077.18 120.26 1090.75 120.26V65.99ZM1158.59 251.41C1158.59 251.41 1172.16 253.7 1178.94 246.9C1190.25 237.86 1187.98 228.81 1187.98 228.81V158.69C1187.98 158.69 1183.46 149.64 1174.42 149.64C1165.38 149.64 1158.58 158.69 1158.58 158.69L1158.59 251.41ZM1188 65.99L1169.9 50.16L1158.59 56.95V122.53C1158.59 122.53 1165.38 129.32 1174.43 129.32C1183.48 129.32 1188 122.53 1188 122.53V65.99ZM1188 127.05C1188 127.05 1183.47 131.57 1174.43 131.57C1165.39 131.57 1158.59 127.05 1158.59 127.05V154.19C1158.59 154.19 1165.38 147.41 1174.43 147.41C1183.48 147.41 1188 154.19 1188 154.19V127.05ZM1472.93 319.28C1472.93 303.45 1472.93 303.45 1466.15 301.18H1463.89V298.92H1522.69C1522.69 301.18 1524.95 310.22 1524.95 314.76C1524.95 317.01 1522.69 317.02 1520.44 317.02C1518.18 310.23 1518.18 305.72 1511.4 303.46H1488.78C1484.24 303.46 1484.24 303.46 1484.24 307.98V335.11C1484.24 337.39 1484.24 337.39 1488.78 337.39H1509.11C1509.11 337.39 1511.4 335.11 1511.4 332.85V328.34C1513.65 326.05 1515.91 326.05 1515.91 328.34V353.21C1515.91 355.47 1513.65 355.47 1511.4 353.21V348.67C1511.4 346.42 1509.11 344.13 1506.86 344.13C1504.6 344.13 1502.34 341.88 1497.82 341.88H1488.78C1484.24 341.88 1484.24 344.13 1484.24 346.42V364.51C1484.24 373.55 1484.24 378.09 1486.52 380.35C1488.78 380.35 1491.03 382.6 1502.36 382.6C1513.65 382.6 1518.19 382.6 1520.45 380.35C1522.71 378.09 1524.96 373.56 1529.49 366.77C1529.49 366.77 1531.75 366.77 1531.75 369.02C1531.75 373.56 1529.49 382.6 1527.23 387.13H1461.64V382.59H1466.16C1472.94 382.59 1472.94 380.33 1472.94 366.75L1472.93 319.28ZM1545.3 341.88C1543.04 339.62 1540.76 337.36 1536.26 337.36H1533.98V332.83H1558.85V337.36H1556.6C1552.08 337.36 1552.08 339.62 1554.34 341.88L1561.12 350.92C1561.12 353.2 1563.38 353.2 1563.38 353.2C1563.38 353.2 1567.92 346.42 1570.16 341.88C1572.42 339.62 1572.42 337.36 1570.16 337.36H1567.91V332.83H1588.24V337.36H1585.99C1583.73 337.36 1581.45 337.36 1579.2 339.62C1576.96 341.88 1572.42 348.66 1567.91 355.46C1565.62 357.71 1565.62 357.71 1567.91 359.97L1579.2 378.08C1581.46 382.59 1583.74 382.59 1588.24 382.59H1590.5V387.13H1563.37V382.59H1567.91C1572.42 382.59 1572.42 382.59 1570.16 380.33L1563.38 369.01C1561.12 366.75 1561.12 366.75 1561.12 364.5C1558.84 366.75 1558.84 366.75 1558.84 369.01L1552.08 378.08C1549.8 382.59 1549.8 382.59 1552.08 382.59H1554.34C1556.6 384.85 1556.6 387.13 1554.34 387.13H1536.26C1533.98 387.13 1533.98 384.85 1533.98 382.59H1538.52C1540.77 382.59 1543.06 382.59 1545.3 378.08C1547.56 375.79 1554.34 366.75 1556.6 364.5C1556.6 362.24 1558.85 362.24 1556.6 359.96L1545.3 341.88ZM1610.89 350.92C1610.89 346.4 1610.89 344.13 1613.14 341.88C1615.4 339.62 1617.68 337.36 1624.44 337.36C1635.76 337.36 1642.55 348.66 1642.55 359.96C1642.55 373.54 1635.76 384.83 1624.44 384.83C1622.18 384.83 1617.68 382.58 1615.4 380.32C1613.14 378.06 1610.89 378.06 1610.89 373.54V350.92ZM1601.83 405.21C1601.83 414.25 1601.83 416.51 1597.3 416.51L1592.78 418.76C1592.78 418.76 1592.78 421.05 1595.04 421.05H1622.17V418.76L1615.39 416.51C1610.87 416.51 1610.87 414.25 1610.87 405.21V391.63C1610.87 389.37 1613.13 387.12 1613.13 387.12C1615.39 387.12 1617.67 389.37 1619.91 389.37C1640.25 389.37 1653.83 375.79 1653.83 355.46C1653.83 341.88 1644.79 332.84 1631.21 332.84C1622.17 332.84 1613.12 337.38 1613.12 337.38H1610.86V330.59C1606.32 332.85 1599.54 335.11 1597.28 337.38V339.63C1601.82 341.89 1601.82 341.89 1601.82 348.67L1601.83 405.21ZM1674.18 348.66H1671.92C1671.92 344.12 1678.71 335.08 1687.76 335.08C1694.54 335.08 1696.8 339.62 1696.8 344.12V346.4C1694.54 348.66 1692.26 348.66 1683.22 348.66H1674.18ZM1699.06 353.2C1703.6 353.2 1705.84 353.2 1705.84 350.92C1708.1 350.92 1708.1 350.92 1708.1 348.66C1708.1 339.62 1699.06 332.83 1687.76 332.83C1671.92 332.83 1662.88 346.4 1662.88 362.24C1662.88 369 1662.88 373.54 1667.42 380.33C1671.94 384.85 1678.72 389.37 1687.76 389.37C1694.54 389.37 1703.6 384.83 1708.1 375.79L1705.84 373.54C1701.33 380.32 1696.8 380.32 1692.26 380.32C1678.71 380.32 1671.92 369 1671.92 355.44C1671.92 353.19 1671.92 353.19 1674.18 353.19L1699.06 353.2ZM1757.86 335.08C1760.14 335.08 1760.14 337.36 1760.14 339.62C1760.14 341.88 1757.86 344.13 1757.86 344.13H1755.6C1753.35 339.62 1746.56 337.38 1742.03 337.38C1732.99 337.38 1723.93 344.13 1723.93 357.71C1723.93 369.01 1730.72 380.33 1744.29 380.33C1753.33 380.33 1757.85 378.08 1760.13 373.55C1760.13 373.55 1762.39 373.55 1762.39 375.81C1757.85 384.85 1748.81 389.39 1739.77 389.39C1732.99 389.39 1726.21 387.13 1721.68 382.6C1717.14 378.09 1714.89 371.31 1714.89 362.27C1714.89 346.43 1723.93 332.85 1746.55 332.85C1748.81 332.83 1755.6 332.83 1757.86 335.08ZM1787.26 339.62C1785.01 339.62 1785.01 339.62 1785.01 341.88V366.75C1785.01 375.79 1785.01 382.59 1794.05 382.59H1796.3C1798.56 382.59 1800.84 380.33 1800.84 380.33C1800.84 380.33 1803.1 382.59 1800.84 382.59C1798.56 384.85 1794.06 389.37 1787.26 389.37C1775.97 389.37 1773.68 382.59 1773.68 373.54V344.12C1773.68 339.61 1773.68 339.61 1771.43 339.61H1766.89V337.35C1771.43 335.07 1773.67 332.81 1775.95 332.81C1778.21 330.56 1780.47 328.3 1780.47 323.77C1782.72 323.77 1782.72 323.77 1785.01 326.03V330.57C1785.01 332.83 1785.01 332.83 1787.26 332.83H1800.84C1803.1 335.08 1803.1 339.61 1800.84 339.61L1787.26 339.62ZM1859.63 339.62C1857.35 339.62 1857.35 339.62 1857.35 341.88V366.75C1857.35 375.79 1857.35 382.59 1866.39 382.59H1870.93L1873.19 380.33C1875.45 380.33 1875.45 382.59 1875.45 382.59C1873.19 384.85 1868.69 389.37 1861.89 389.37C1850.59 389.37 1848.31 382.59 1848.31 373.54V344.12C1848.31 339.61 1848.31 339.61 1846.06 339.61H1841.52C1841.52 339.61 1839.26 337.35 1841.52 337.35C1843.8 335.07 1848.3 332.81 1848.3 332.81C1850.58 330.56 1852.84 328.3 1855.08 323.77C1855.08 323.77 1857.34 323.77 1857.34 326.03V330.57C1857.34 332.83 1857.34 332.83 1859.62 332.83H1875.43V339.61L1859.63 339.62ZM1889.02 310.21C1889.02 303.45 1889.02 303.45 1884.51 301.17L1882.23 298.91V296.65C1886.77 296.65 1891.27 294.4 1898.06 292.11V339.62C1902.6 335.08 1909.39 332.84 1916.16 332.84C1929.74 332.84 1934.26 339.62 1934.26 348.67V371.29C1934.26 380.33 1934.26 382.59 1938.78 382.59H1941.03C1943.32 384.85 1943.32 387.13 1941.03 387.13H1916.16V382.59H1918.44C1922.95 382.59 1922.95 380.33 1922.95 371.29V353.2C1922.95 344.13 1920.7 337.36 1911.66 337.36C1907.12 337.36 1902.62 339.62 1900.33 341.88C1898.08 344.13 1898.08 344.13 1898.08 348.66V371.28C1898.08 380.32 1898.08 382.58 1902.62 382.58H1904.87C1907.13 384.83 1907.13 387.12 1904.87 387.12H1880V382.58H1882.25C1889.04 382.58 1889.04 380.32 1889.04 371.28V310.21H1889.02ZM1961.4 348.66H1959.14C1959.14 344.12 1965.9 335.08 1974.95 335.08C1981.73 335.08 1984.01 339.62 1984.01 344.12V346.4C1981.73 348.66 1979.48 348.66 1970.44 348.66H1961.4ZM1986.27 353.2C1990.79 353.2 1993.05 353.2 1993.05 350.92C1995.31 350.92 1995.31 350.92 1995.31 348.66C1995.31 339.62 1986.27 332.83 1974.95 332.83C1959.14 332.83 1950.07 346.4 1950.07 362.24C1950.07 369 1950.07 373.54 1954.61 380.33C1959.15 384.85 1965.91 389.37 1974.95 389.37C1981.73 389.37 1990.79 384.83 1995.31 375.79L1993.05 373.54C1988.52 380.32 1984.01 380.32 1979.48 380.32C1965.9 380.32 1959.14 369 1959.14 355.44C1959.14 353.19 1959.14 353.19 1961.4 353.19L1986.27 353.2ZM2026.98 301.17V298.91H2056.37C2058.63 298.91 2058.63 301.17 2056.37 301.17H2054.12C2051.86 301.17 2049.58 303.45 2049.58 303.45C2049.58 305.71 2051.86 312.49 2056.36 321.54C2063.14 337.38 2072.2 355.46 2078.98 371.29C2083.49 364.51 2085.76 357.71 2090.28 350.93C2090.28 346.42 2092.56 344.15 2092.56 344.15L2090.28 341.89L2076.72 307.98C2074.44 305.72 2072.18 301.19 2067.68 301.19H2065.4C2063.14 301.19 2063.14 298.94 2065.4 298.94H2092.56C2094.82 298.94 2094.82 301.19 2092.56 301.19H2090.28C2085.76 301.19 2085.76 303.47 2088.02 307.98C2090.28 314.76 2094.8 323.81 2097.06 332.85C2099.32 326.07 2101.6 321.55 2106.1 314.76C2110.64 303.46 2108.36 301.18 2106.1 301.18H2101.59C2099.3 298.92 2101.59 298.92 2101.59 298.92H2126.46C2126.46 298.92 2128.72 301.18 2126.46 301.18H2121.92C2117.41 301.18 2115.14 307.96 2112.88 312.5C2108.34 319.28 2103.84 330.59 2101.59 335.09V341.89C2106.1 350.93 2110.63 362.25 2115.14 371.31C2119.68 362.27 2121.92 353.21 2126.46 344.15C2128.72 337.39 2137.76 319.3 2137.76 317.02C2140.02 312.5 2142.3 305.72 2142.3 303.46C2142.3 303.46 2140.02 301.18 2137.76 301.18H2133.22V298.92H2158.1C2160.38 298.92 2160.38 301.18 2158.1 301.18H2155.84C2149.06 301.18 2149.06 305.72 2140 323.8L2130.96 346.42C2124.18 359.97 2119.67 373.55 2115.13 389.37H2110.61C2106.13 376.24 2100.84 363.4 2094.78 350.92C2090.24 359.96 2081.2 378.08 2078.94 389.37H2074.4C2072.14 382.59 2067.64 371.28 2065.36 366.75C2056.32 348.66 2049.53 330.58 2040.49 310.22C2038.23 305.71 2035.97 301.18 2031.45 301.18L2026.98 301.17ZM2192.06 362.24C2192.06 371.28 2189.78 384.83 2178.48 384.83C2164.9 384.83 2160.39 371.28 2160.39 359.96C2160.39 344.12 2167.17 335.08 2176.23 335.08C2187.52 335.08 2192.06 350.92 2192.06 362.24ZM2176.23 332.83C2162.65 332.83 2149.07 344.12 2149.07 359.96C2149.07 378.06 2160.39 389.37 2176.23 389.37C2192.06 389.37 2203.36 375.79 2203.36 359.96C2203.36 344.12 2192.06 332.83 2176.23 332.83ZM2221.45 348.66C2221.45 341.88 2221.45 341.88 2219.2 339.62H2216.94V337.36C2219.2 335.08 2228.24 332.83 2230.49 330.58V339.62H2232.75C2237.29 335.08 2241.79 332.84 2246.33 332.84C2250.87 332.84 2253.11 335.09 2253.11 337.38C2253.11 341.89 2248.57 344.13 2246.33 344.13C2246.33 344.13 2244.07 344.13 2244.07 341.88C2241.79 341.88 2239.53 339.62 2237.29 339.62C2235.04 339.62 2235.03 341.88 2232.75 344.13C2232.75 344.13 2230.49 348.67 2230.49 353.2V371.29C2230.49 380.33 2232.75 382.59 2237.28 382.59H2241.79V387.13H2214.66C2212.4 387.13 2212.4 384.85 2214.66 382.59H2216.94C2221.45 382.59 2221.45 380.33 2221.45 371.29V348.66ZM2273.45 371.28C2273.45 380.32 2273.45 382.58 2277.99 382.58H2282.5V387.12H2255.37V382.58H2259.91C2264.42 382.58 2264.42 380.32 2264.42 371.28V310.21C2264.42 303.45 2264.42 303.45 2259.91 301.17V298.91C2257.63 298.91 2257.63 296.65 2259.91 296.65C2262.16 296.65 2268.95 294.4 2273.46 292.11V371.28H2273.45ZM2332.25 373.54C2332.25 375.79 2332.25 378.08 2330 378.08C2327.74 380.33 2323.21 382.59 2320.96 382.59C2307.38 382.59 2300.62 371.29 2300.62 357.71C2300.62 346.42 2307.38 335.09 2318.71 335.09C2323.23 335.09 2327.75 339.63 2330.01 341.88C2330.01 344.13 2332.27 344.13 2332.27 346.42L2332.25 373.54ZM2341.29 307.96V292.13C2334.54 294.41 2330 296.67 2325.48 296.67V298.92L2327.74 301.18C2332.25 303.46 2332.25 303.46 2332.25 310.22V330.58C2332.25 332.84 2332.25 332.84 2330 332.84H2320.96C2302.86 332.84 2289.3 344.13 2289.3 362.25C2289.3 375.81 2300.62 389.39 2314.17 389.39C2320.96 389.39 2325.5 387.13 2330.01 382.6H2332.27V389.4C2336.81 389.4 2345.85 387.14 2350.37 384.86C2352.63 384.86 2352.63 382.6 2350.37 380.35C2348.09 382.6 2345.83 382.6 2345.83 382.6C2341.29 382.6 2341.29 378.09 2341.29 366.77V307.96ZM2386.53 303.45C2386.53 303.45 2386.53 301.17 2388.79 301.17C2395.57 301.17 2397.83 305.71 2397.83 310.21C2397.83 314.75 2395.57 319.27 2391.05 319.27C2386.53 319.27 2386.53 319.27 2386.53 316.99V303.45ZM2379.75 328.32C2379.75 335.08 2379.75 335.08 2377.49 335.08L2375.24 337.36H2391.03C2393.31 337.36 2393.31 337.36 2391.03 337.36L2388.78 335.08C2386.52 335.08 2386.52 335.08 2386.52 328.32V323.79C2386.52 321.53 2386.52 321.53 2388.78 321.53H2391.03C2393.31 326.04 2395.57 328.31 2397.82 330.57C2400.1 337.35 2404.6 339.61 2409.14 339.61C2409.14 339.61 2411.39 339.61 2411.39 337.35C2411.39 337.35 2409.14 337.35 2409.14 335.07C2404.6 332.81 2402.35 328.31 2397.82 321.52V319.26C2400.1 316.98 2404.6 314.72 2404.6 310.19C2404.6 301.15 2395.56 298.9 2391.02 298.9H2375.21V301.15H2377.47C2379.72 301.15 2379.72 303.44 2379.72 310.19V328.32H2379.75ZM2391.05 353.2C2411.41 353.2 2427.24 337.36 2427.24 319.28C2427.24 298.92 2411.41 285.34 2391.05 285.34C2370.71 285.34 2357.13 298.92 2357.13 319.28C2357.13 337.36 2370.7 353.2 2391.05 353.2ZM2361.66 319.28C2361.66 301.18 2375.23 287.63 2391.05 287.63C2409.15 287.63 2420.46 301.18 2420.46 319.28C2420.46 335.09 2409.16 348.67 2391.05 348.67C2375.23 348.66 2361.66 335.08 2361.66 319.28Z" fill="#383028"/>
</g>
</g>
<defs>
<clipPath id="clip0_39_279">
<rect width="2428" height="422" fill="white"/>
</clipPath>
</defs>
</svg>
